<svg xmlns="http://www.w3.org/2000/svg" width="42" height="31" viewBox="0 0 42 31">
  <g id="Group_3" data-name="Group 3" transform="translate(-147 -143)">
    <text id="DESIGN" transform="translate(151 172)" font-size="9" font-family="ArialUnicodeMS, Arial Unicode MS"><tspan x="0" y="0">DESIGN</tspan></text>
    <g id="Group_2" data-name="Group 2" transform="translate(1)">
      <g id="_9080924_letter_n_icon" data-name="9080924_letter_n_icon" transform="translate(147 143)" style="isolation: isolate">
        <path id="Path_1" data-name="Path 1" d="M0,0H24V24H0Z" fill="none"/>
        <path id="Path_2" data-name="Path 2" d="M7,20V4L17,20V4" fill="none" stroke="#000" stroke-linecap="round" stroke-linejoin="round" stroke-width="1"/>
      </g>
      <g id="_9081117_letter_w_icon" data-name="9081117_letter_w_icon" transform="translate(164 143)">
        <path id="Path_3" data-name="Path 3" d="M0,0H24V24H0Z" fill="none"/>
        <path id="Path_4" data-name="Path 4" d="M4,4,8,20,12,6l4,14L20,4" fill="none" stroke="#000" stroke-linecap="round" stroke-linejoin="round" stroke-width="1"/>
      </g>
    </g>
    <g id="Group_1" data-name="Group 1">
      <g id="_9080924_letter_n_icon-2" data-name="9080924_letter_n_icon" transform="translate(147 143)" style="isolation: isolate">
        <path id="Path_1-2" data-name="Path 1" d="M0,0H24V24H0Z" fill="none"/>
        <path id="Path_2-2" data-name="Path 2" d="M7,20V4L17,20V4" fill="none" stroke="#1a5e63" stroke-linecap="round" stroke-linejoin="round" stroke-width="2"/>
      </g>
      <g id="_9081117_letter_w_icon-2" data-name="9081117_letter_w_icon" transform="translate(164 143)">
        <path id="Path_3-2" data-name="Path 3" d="M0,0H24V24H0Z" fill="none"/>
        <path id="Path_4-2" data-name="Path 4" d="M4,4,8,20,12,6l4,14L20,4" fill="none" stroke="#1a5e63" stroke-linecap="round" stroke-linejoin="round" stroke-width="2"/>
      </g>
    </g>
  </g>
</svg>
